{
  "source": "C:\\Users\\Peter\\Desktop\\stuff\\MIUN\\quantitative_research\\video_compression\\videos\\BVI-HD\\BVI-HD_CDVL_videos\\ORIG\\Lightreef_1920x1080_30fps.mp4",
  "output": "C:\\Users\\Peter\\Desktop\\stuff\\MIUN\\quantitative_research\\video_compression\\compressed_videos\\BVI-HD\\hevc\\1\\Lightreef_1920x1080_30fps_hevc.mp4",
  "codec": "hevc",
  "ok": "Input #0, mov,mp4,m4a,3gp,3g2,mj2, from 'C:\\Users\\Peter\\Desktop\\stuff\\MIUN\\quantitative_research\\video_compression\\videos\\BVI-HD\\BVI-HD_CDVL_videos\\ORIG\\Lightreef_1920x1080_30fps.mp4':\n  Metadata:\n    major_brand     : isom\n    minor_version   : 512\n    compatible_brands: isomiso2avc1mp41\n    encoder         : Lavf54.28.101\n  Duration: 00:00:05.00, start: 0.000000, bitrate: 361719 kb/s\n  Stream #0:0[0x1](und): Video: h264 (High 4:4:4 Predictive) (avc1 / 0x31637661), yuv420p(progressive), 1920x1080, 361715 kb/s, 30 fps, 30 tbr, 30 tbn (default)\n    Metadata:\n      handler_name    : VideoHandler\n      vendor_id       : [0][0][0][0]\n[out#0/mp4 @ 0000014f38fdab00] Codec AVOption b:a (set bitrate (in bits/s)) has not been used for any stream. The most likely reason is either wrong type (e.g. a video option with no video streams) or that it is a private option of some decoder which was not actually used for any stream.\nStream mapping:\n  Stream #0:0 -> #0:0 (h264 (native) -> hevc (libx265))\nPress [q] to stop, [?] for help\n[libx265 @ 0000014f39b50bc0] Unknown option: \"aq-mode.\nx265 [info]: HEVC encoder version 4.1+190-8f11c33ac\nx265 [info]: build info [Windows][GCC 15.1.0][64 bit] 10bit\nx265 [info]: using cpu capabilities: MMX2 SSE2Fast LZCNT SSSE3 SSE4.2 AVX FMA3 BMI2 AVX2\nx265 [info]: Main 10 profile, Level-4 (Main tier)\nx265 [info]: Thread pool created using 12 threads\nx265 [info]: Slices                              : 1\nx265 [info]: frame threads / pool features       : 3 / wpp(17 rows)\nx265 [info]: Coding QT: max CU size, min CU size : 64 / 8\nx265 [info]: Residual QT: max TU size, max depth : 32 / 1 inter / 1 intra\nx265 [info]: ME / range / subpel / merge         : star / 57 / 3 / 3\nx265 [info]: Keyframe min / max / scenecut / bias  : 25 / 250 / 40 / 5.00 \nx265 [info]: Lookahead / bframes / badapt        : 25 / 4 / 2\nx265 [info]: b-pyramid / weightp / weightb       : 1 / 1 / 0\nx265 [info]: References / ref-limit  cu / depth  : 4 / on / on\nx265 [info]: AQ: mode / str / qg-size / cu-tree  : 2 / 1.0 / 32 / 1\nx265 [info]: Rate Control / qCompress            : ABR-1000 kbps / 0.60\nx265 [info]: VBV/HRD buffer / max-rate / init    : 1000 / 1000 / 0.750\nx265 [info]: tools: rect limit-modes rd=4 psy-rd=2.00 rdoq=2 psy-rdoq=1.00\nx265 [info]: tools: rskip mode=1 signhide tmvp strong-intra-smoothing lslices=4\nx265 [info]: tools: deblock sao dhdr10-info\nOutput #0, mp4, to 'C:\\Users\\Peter\\Desktop\\stuff\\MIUN\\quantitative_research\\video_compression\\compressed_videos\\BVI-HD\\hevc\\1\\Lightreef_1920x1080_30fps_hevc.mp4':\n  Metadata:\n    major_brand     : isom\n    minor_version   : 512\n    compatible_brands: isomiso2avc1mp41\n    encoder         : Lavf62.3.100\n  Stream #0:0(und): Video: hevc (hev1 / 0x31766568), yuv420p10le(tv, progressive), 1920x1080, q=2-31, 1000 kb/s, 30 fps, 15360 tbn (default)\n    Metadata:\n      encoder         : Lavc62.11.100 libx265\n      handler_name    : VideoHandler\n      vendor_id       : [0][0][0][0]\n    Side data:\n      cpb: bitrate max/min/avg: 1000000/0/1000000 buffer size: 1000000 vbv_delay: N/A\nframe=    0 fps=0.0 q=0.0 size=       0KiB time=N/A bitrate=N/A speed=N/A elapsed=0:00:00.52    \nframe=    0 fps=0.0 q=0.0 size=       0KiB time=N/A bitrate=N/A speed=N/A elapsed=0:00:01.04    \nframe=    0 fps=0.0 q=0.0 size=       0KiB time=N/A bitrate=N/A speed=N/A elapsed=0:00:01.55    \nframe=    0 fps=0.0 q=0.0 size=       0KiB time=N/A bitrate=N/A speed=N/A elapsed=0:00:02.07    \nframe=    0 fps=0.0 q=0.0 size=       0KiB time=N/A bitrate=N/A speed=N/A elapsed=0:00:02.59    \nframe=    0 fps=0.0 q=0.0 size=       0KiB time=N/A bitrate=N/A speed=N/A elapsed=0:00:03.11    \nframe=    0 fps=0.0 q=0.0 size=       0KiB time=N/A bitrate=N/A speed=N/A elapsed=0:00:03.62    \nframe=    0 fps=0.0 q=0.0 size=       0KiB time=N/A bitrate=N/A speed=N/A elapsed=0:00:04.14    \nframe=    1 fps=0.2 q=45.7 size=       0KiB time=-00:00:00.03 bitrate=N/A speed=N/A elapsed=0:00:04.66    \nframe=    2 fps=0.4 q=50.9 size=       0KiB time=00:00:00.00 bitrate=N/A speed=   0x elapsed=0:00:05.17    \nframe=    3 fps=0.5 q=51.0 size=       0KiB time=00:00:00.03 bitrate=  10.6kbits/s speed=0.00584x elapsed=0:00:05.70    \nframe=    3 fps=0.5 q=51.0 size=       0KiB time=00:00:00.03 bitrate=  10.6kbits/s speed=0.00535x elapsed=0:00:06.22    \nframe=    3 fps=0.4 q=51.0 size=       0KiB time=00:00:00.03 bitrate=  10.6kbits/s speed=0.00494x elapsed=0:00:06.74    \nframe=    4 fps=0.6 q=51.0 size=       0KiB time=00:00:00.06 bitrate=   5.3kbits/s speed=0.00918x elapsed=0:00:07.26    \nframe=    4 fps=0.5 q=51.0 size=       0KiB time=00:00:00.06 bitrate=   5.3kbits/s speed=0.00853x elapsed=0:00:07.81    \nframe=    4 fps=0.5 q=51.0 size=       0KiB time=00:00:00.06 bitrate=   5.3kbits/s speed=0.00799x elapsed=0:00:08.34    \nframe=    4 fps=0.5 q=51.0 size=       0KiB time=00:00:00.06 bitrate=   5.3kbits/s speed=0.00751x elapsed=0:00:08.88    \nframe=    5 fps=0.5 q=51.0 size=       0KiB time=00:00:00.10 bitrate=   3.5kbits/s speed=0.0106x elapsed=0:00:09.42    \nframe=    6 fps=0.6 q=51.0 size=       0KiB time=00:00:00.13 bitrate=   2.6kbits/s speed=0.0134x elapsed=0:00:09.95    \nframe=    6 fps=0.6 q=51.0 size=       0KiB time=00:00:00.13 bitrate=   2.6kbits/s speed=0.0127x elapsed=0:00:10.49    \nframe=    6 fps=0.5 q=51.0 size=       0KiB time=00:00:00.13 bitrate=   2.6kbits/s speed=0.0121x elapsed=0:00:11.01    \nframe=    6 fps=0.5 q=51.0 size=       0KiB time=00:00:00.13 bitrate=   2.6kbits/s speed=0.0116x elapsed=0:00:11.54    \nframe=    6 fps=0.5 q=51.0 size=       0KiB time=00:00:00.13 bitrate=   2.6kbits/s speed=0.011x elapsed=0:00:12.06    \nframe=    6 fps=0.5 q=51.0 size=       0KiB time=00:00:00.13 bitrate=   2.6kbits/s speed=0.0106x elapsed=0:00:12.60    \nframe=    6 fps=0.5 q=51.0 size=       0KiB time=00:00:00.13 bitrate=   2.6kbits/s speed=0.0102x elapsed=0:00:13.13    \nframe=    7 fps=0.5 q=47.2 size=       0KiB time=00:00:00.16 bitrate=   2.1kbits/s speed=0.0122x elapsed=0:00:13.67    \nframe=    7 fps=0.5 q=47.2 size=       0KiB time=00:00:00.16 bitrate=   2.1kbits/s speed=0.0117x elapsed=0:00:14.20    \nframe=    7 fps=0.5 q=47.2 size=       0KiB time=00:00:00.16 bitrate=   2.1kbits/s speed=0.0113x elapsed=0:00:14.71    \nframe=    8 fps=0.5 q=50.3 size=       0KiB time=00:00:00.20 bitrate=   1.8kbits/s speed=0.0131x elapsed=0:00:15.24    \nframe=    9 fps=0.6 q=49.4 size=       0KiB time=00:00:00.23 bitrate=   1.5kbits/s speed=0.0148x elapsed=0:00:15.77    \nframe=    9 fps=0.6 q=49.4 size=       0KiB time=00:00:00.23 bitrate=   1.5kbits/s speed=0.0143x elapsed=0:00:16.29    \nframe=   10 fps=0.6 q=48.8 size=       0KiB time=00:00:00.23 bitrate=   1.5kbits/s speed=0.0139x elapsed=0:00:16.82    \nframe=   10 fps=0.6 q=48.8 size=       0KiB time=00:00:00.26 bitrate=   1.3kbits/s speed=0.0154x elapsed=0:00:17.35    \nframe=   10 fps=0.6 q=48.8 size=       0KiB time=00:00:00.26 bitrate=   1.3kbits/s speed=0.0149x elapsed=0:00:17.90    \nframe=   10 fps=0.5 q=48.8 size=       0KiB time=00:00:00.26 bitrate=   1.3kbits/s speed=0.0145x elapsed=0:00:18.44    \nframe=   11 fps=0.6 q=47.9 size=       0KiB time=00:00:00.30 bitrate=   1.2kbits/s speed=0.0158x elapsed=0:00:18.97    \nframe=   11 fps=0.6 q=47.9 size=       0KiB time=00:00:00.30 bitrate=   1.2kbits/s speed=0.0154x elapsed=0:00:19.50    \nframe=   12 fps=0.6 q=45.5 size=       0KiB time=00:00:00.33 bitrate=   1.1kbits/s speed=0.0167x elapsed=0:00:20.01    \nframe=   12 fps=0.6 q=45.5 size=       0KiB time=00:00:00.33 bitrate=   1.1kbits/s speed=0.0162x elapsed=0:00:20.52    \nframe=   13 fps=0.6 q=46.9 size=       0KiB time=00:00:00.36 bitrate=   1.0kbits/s speed=0.0174x elapsed=0:00:21.06    \nframe=   13 fps=0.6 q=46.9 size=       0KiB time=00:00:00.36 bitrate=   1.0kbits/s speed=0.017x elapsed=0:00:21.57    \nframe=   14 fps=0.6 q=47.4 size=       0KiB time=00:00:00.40 bitrate=   0.9kbits/s speed=0.0181x elapsed=0:00:22.09    \nframe=   14 fps=0.6 q=47.4 size=       0KiB time=00:00:00.40 bitrate=   0.9kbits/s speed=0.0177x elapsed=0:00:22.61    \nframe=   14 fps=0.6 q=47.4 size=       0KiB time=00:00:00.40 bitrate=   0.9kbits/s speed=0.0173x elapsed=0:00:23.15    \nframe=   15 fps=0.6 q=48.0 size=       0KiB time=00:00:00.43 bitrate=   0.8kbits/s speed=0.0183x elapsed=0:00:23.68    \nframe=   15 fps=0.6 q=48.0 size=       0KiB time=00:00:00.43 bitrate=   0.8kbits/s speed=0.0179x elapsed=0:00:24.19    \nframe=   16 fps=0.6 q=44.1 size=       0KiB time=00:00:00.46 bitrate=   0.8kbits/s speed=0.0189x elapsed=0:00:24.72    \nframe=   16 fps=0.6 q=44.1 size=       0KiB time=00:00:00.46 bitrate=   0.8kbits/s speed=0.0185x elapsed=0:00:25.26    \nframe=   17 fps=0.7 q=48.5 size=       0KiB time=00:00:00.50 bitrate=   0.7kbits/s speed=0.0194x elapsed=0:00:25.80    \nframe=   18 fps=0.7 q=48.0 size=       0KiB time=00:00:00.53 bitrate=   0.7kbits/s speed=0.0203x elapsed=0:00:26.32    \nframe=   18 fps=0.7 q=48.0 size=       0KiB time=00:00:00.53 bitrate=   0.7kbits/s speed=0.0199x elapsed=0:00:26.83    \nframe=   18 fps=0.7 q=48.0 size=       0KiB time=00:00:00.53 bitrate=   0.7kbits/s speed=0.0195x elapsed=0:00:27.36    \nframe=   19 fps=0.7 q=49.5 size=       0KiB time=00:00:00.56 bitrate=   0.6kbits/s speed=0.0203x elapsed=0:00:27.87    \nframe=   20 fps=0.7 q=48.8 size=       0KiB time=00:00:00.60 bitrate=   0.6kbits/s speed=0.0211x elapsed=0:00:28.40    \nframe=   20 fps=0.7 q=48.8 size=       0KiB time=00:00:00.60 bitrate=   0.6kbits/s speed=0.0207x elapsed=0:00:28.94    \nframe=   20 fps=0.7 q=48.8 size=       0KiB time=00:00:00.60 bitrate=   0.6kbits/s speed=0.0204x elapsed=0:00:29.47    \nframe=   20 fps=0.7 q=48.8 size=       0KiB time=00:00:00.60 bitrate=   0.6kbits/s speed=0.02x elapsed=0:00:30.06    \nframe=   20 fps=0.7 q=48.8 size=       0KiB time=00:00:00.60 bitrate=   0.6kbits/s speed=0.0196x elapsed=0:00:30.61    \nframe=   21 fps=0.7 q=43.1 size=       0KiB time=00:00:00.63 bitrate=   0.6kbits/s speed=0.0203x elapsed=0:00:31.16    \nframe=   22 fps=0.7 q=46.7 size=       0KiB time=00:00:00.66 bitrate=   0.5kbits/s speed=0.021x elapsed=0:00:31.68    \nframe=   22 fps=0.7 q=46.7 size=       0KiB time=00:00:00.66 bitrate=   0.5kbits/s speed=0.0207x elapsed=0:00:32.20    \nframe=   23 fps=0.7 q=49.8 size=       0KiB time=00:00:00.70 bitrate=   0.5kbits/s speed=0.0214x elapsed=0:00:32.73    \nframe=   23 fps=0.7 q=49.8 size=       0KiB time=00:00:00.70 bitrate=   0.5kbits/s speed=0.021x elapsed=0:00:33.25    \nframe=   23 fps=0.7 q=49.8 size=       0KiB time=00:00:00.70 bitrate=   0.5kbits/s speed=0.0207x elapsed=0:00:33.79    \nframe=   23 fps=0.7 q=49.8 size=       0KiB time=00:00:00.70 bitrate=   0.5kbits/s speed=0.0204x elapsed=0:00:34.34    \nframe=   23 fps=0.7 q=49.8 size=       0KiB time=00:00:00.70 bitrate=   0.5kbits/s speed=0.0201x elapsed=0:00:34.86    \nframe=   24 fps=0.7 q=50.0 size=       0KiB time=00:00:00.73 bitrate=   0.5kbits/s speed=0.0207x elapsed=0:00:35.40    \nframe=   25 fps=0.7 q=43.7 size=       0KiB time=00:00:00.76 bitrate=   0.5kbits/s speed=0.0213x elapsed=0:00:35.99    \nframe=   25 fps=0.7 q=43.7 size=       0KiB time=00:00:00.76 bitrate=   0.5kbits/s speed=0.021x elapsed=0:00:36.52    \nframe=   25 fps=0.7 q=43.7 size=       0KiB time=00:00:00.76 bitrate=   0.5kbits/s speed=0.0207x elapsed=0:00:37.06    \nframe=   25 fps=0.7 q=43.7 size=       0KiB time=00:00:00.76 bitrate=   0.5kbits/s speed=0.0204x elapsed=0:00:37.59    \nframe=   25 fps=0.7 q=43.7 size=       0KiB time=00:00:00.76 bitrate=   0.5kbits/s speed=0.0201x elapsed=0:00:38.11    \nframe=   26 fps=0.7 q=45.1 size=       0KiB time=00:00:00.80 bitrate=   0.4kbits/s speed=0.0207x elapsed=0:00:38.64    \nframe=   26 fps=0.7 q=45.1 size=       0KiB time=00:00:00.80 bitrate=   0.4kbits/s speed=0.0204x elapsed=0:00:39.15    \nframe=   27 fps=0.7 q=50.0 size=       0KiB time=00:00:00.80 bitrate=   0.4kbits/s speed=0.0202x elapsed=0:00:39.70    \nframe=   27 fps=0.7 q=50.0 size=       0KiB time=00:00:00.83 bitrate=   0.4kbits/s speed=0.0207x elapsed=0:00:40.23    \nframe=   27 fps=0.7 q=50.0 size=       0KiB time=00:00:00.83 bitrate=   0.4kbits/s speed=0.0204x elapsed=0:00:40.75    \nframe=   27 fps=0.7 q=50.0 size=       0KiB time=00:00:00.83 bitrate=   0.4kbits/s speed=0.0202x elapsed=0:00:41.27    \nframe=   27 fps=0.6 q=50.0 size=       0KiB time=00:00:00.83 bitrate=   0.4kbits/s speed=0.0199x elapsed=0:00:41.82    \nframe=   27 fps=0.6 q=50.0 size=       0KiB time=00:00:00.83 bitrate=   0.4kbits/s speed=0.0197x elapsed=0:00:42.33    \nframe=   27 fps=0.6 q=50.0 size=       0KiB time=00:00:00.83 bitrate=   0.4kbits/s speed=0.0194x elapsed=0:00:42.89    \nframe=   28 fps=0.6 q=48.9 size=       0KiB time=00:00:00.86 bitrate=   0.4kbits/s speed=0.02x elapsed=0:00:43.40    \nframe=   28 fps=0.6 q=48.9 size=       0KiB time=00:00:00.86 bitrate=   0.4kbits/s speed=0.0197x elapsed=0:00:43.91    \nframe=   29 fps=0.7 q=48.9 size=       0KiB time=00:00:00.90 bitrate=   0.4kbits/s speed=0.0202x elapsed=0:00:44.44    \nframe=   30 fps=0.7 q=43.1 size=       0KiB time=00:00:00.93 bitrate=   0.4kbits/s speed=0.0208x elapsed=0:00:44.96    \nframe=   30 fps=0.7 q=43.1 size=       0KiB time=00:00:00.93 bitrate=   0.4kbits/s speed=0.0205x elapsed=0:00:45.49    \nframe=   30 fps=0.7 q=43.1 size=       0KiB time=00:00:00.93 bitrate=   0.4kbits/s speed=0.0203x elapsed=0:00:46.02    \nframe=   31 fps=0.7 q=46.8 size=       0KiB time=00:00:00.96 bitrate=   0.4kbits/s speed=0.0208x elapsed=0:00:46.56    \nframe=   31 fps=0.7 q=46.8 size=       0KiB time=00:00:00.96 bitrate=   0.4kbits/s speed=0.0205x elapsed=0:00:47.13    \nframe=   31 fps=0.6 q=46.8 size=       0KiB time=00:00:00.96 bitrate=   0.4kbits/s speed=0.0203x elapsed=0:00:47.71    \nframe=   31 fps=0.6 q=46.8 size=       0KiB time=00:00:00.96 bitrate=   0.4kbits/s speed=0.02x elapsed=0:00:48.26    \nframe=   32 fps=0.7 q=48.9 size=       0KiB time=00:00:01.00 bitrate=   0.4kbits/s speed=0.0205x elapsed=0:00:48.78    \nframe=   32 fps=0.6 q=48.9 size=       0KiB time=00:00:01.00 bitrate=   0.4kbits/s speed=0.0203x elapsed=0:00:49.30    \nframe=   33 fps=0.7 q=47.9 size=       0KiB time=00:00:01.03 bitrate=   0.3kbits/s speed=0.0207x elapsed=0:00:49.82    \nframe=   33 fps=0.7 q=47.9 size=       0KiB time=00:00:01.03 bitrate=   0.3kbits/s speed=0.0205x elapsed=0:00:50.35    \nframe=   34 fps=0.7 q=43.2 size=       0KiB time=00:00:01.06 bitrate=   0.3kbits/s speed=0.021x elapsed=0:00:50.87    \nframe=   36 fps=0.7 q=48.1 size=       0KiB time=00:00:01.13 bitrate=   0.3kbits/s speed=0.0221x elapsed=0:00:51.39    \nframe=   36 fps=0.7 q=48.1 size=       0KiB time=00:00:01.13 bitrate=   0.3kbits/s speed=0.0218x elapsed=0:00:51.90    \nframe=   37 fps=0.7 q=47.7 size=       0KiB time=00:00:01.16 bitrate=   0.3kbits/s speed=0.0223x elapsed=0:00:52.42    \nframe=   38 fps=0.7 q=48.0 size=       0KiB time=00:00:01.20 bitrate=   0.3kbits/s speed=0.0227x elapsed=0:00:52.93    \nframe=   39 fps=0.7 q=42.5 size=       0KiB time=00:00:01.23 bitrate=   0.3kbits/s speed=0.0231x elapsed=0:00:53.44    \nframe=   39 fps=0.7 q=42.5 size=       0KiB time=00:00:01.23 bitrate=   0.3kbits/s speed=0.0229x elapsed=0:00:53.96    \nframe=   40 fps=0.7 q=45.5 size=       0KiB time=00:00:01.26 bitrate=   0.3kbits/s speed=0.0232x elapsed=0:00:54.49    \nframe=   41 fps=0.7 q=47.8 size=       0KiB time=00:00:01.30 bitrate=   0.3kbits/s speed=0.0236x elapsed=0:00:55.00    \nframe=   42 fps=0.8 q=42.5 size=       0KiB time=00:00:01.33 bitrate=   0.3kbits/s speed=0.024x elapsed=0:00:55.51    \nframe=   43 fps=0.8 q=46.0 size=       0KiB time=00:00:01.36 bitrate=   0.3kbits/s speed=0.0244x elapsed=0:00:56.03    \nframe=   44 fps=0.8 q=47.6 size=       0KiB time=00:00:01.40 bitrate=   0.3kbits/s speed=0.0248x elapsed=0:00:56.54    \nframe=   44 fps=0.8 q=47.6 size=       0KiB time=00:00:01.40 bitrate=   0.3kbits/s speed=0.0245x elapsed=0:00:57.05    \nframe=   45 fps=0.8 q=47.4 size=       0KiB time=00:00:01.43 bitrate=   0.2kbits/s speed=0.0249x elapsed=0:00:57.57    \nframe=   46 fps=0.8 q=42.6 size=       0KiB time=00:00:01.46 bitrate=   0.2kbits/s speed=0.0252x elapsed=0:00:58.09    \nframe=   47 fps=0.8 q=46.7 size=       0KiB time=00:00:01.50 bitrate=   0.2kbits/s speed=0.0256x elapsed=0:00:58.61    \nframe=   48 fps=0.8 q=47.0 size=       0KiB time=00:00:01.53 bitrate=   0.2kbits/s speed=0.0259x elapsed=0:00:59.12    \nframe=   48 fps=0.8 q=47.0 size=       0KiB time=00:00:01.53 bitrate=   0.2kbits/s speed=0.0257x elapsed=0:00:59.63    \nframe=   49 fps=0.8 q=47.1 size=       0KiB time=00:00:01.56 bitrate=   0.2kbits/s speed=0.026x elapsed=0:01:00.16    \nframe=   50 fps=0.8 q=46.9 size=       0KiB time=00:00:01.60 bitrate=   0.2kbits/s speed=0.0264x elapsed=0:01:00.66    \nframe=   51 fps=0.8 q=42.6 size=       0KiB time=00:00:01.63 bitrate=   0.2kbits/s speed=0.0267x elapsed=0:01:01.19    \nframe=   51 fps=0.8 q=42.6 size=       0KiB time=00:00:01.63 bitrate=   0.2kbits/s speed=0.0265x elapsed=0:01:01.69    \nframe=   52 fps=0.8 q=45.4 size=       0KiB time=00:00:01.66 bitrate=   0.2kbits/s speed=0.0268x elapsed=0:01:02.21    \nframe=   52 fps=0.8 q=45.4 size=       0KiB time=00:00:01.66 bitrate=   0.2kbits/s speed=0.0266x elapsed=0:01:02.73    \nframe=   53 fps=0.8 q=47.2 size=       0KiB time=00:00:01.70 bitrate=   0.2kbits/s speed=0.0269x elapsed=0:01:03.24    \nframe=   54 fps=0.8 q=42.7 size=       0KiB time=00:00:01.73 bitrate=   0.2kbits/s speed=0.0272x elapsed=0:01:03.77    \nframe=   54 fps=0.8 q=42.7 size=       0KiB time=00:00:01.73 bitrate=   0.2kbits/s speed=0.027x elapsed=0:01:04.28    \nframe=   55 fps=0.8 q=46.6 size=       0KiB time=00:00:01.76 bitrate=   0.2kbits/s speed=0.0273x elapsed=0:01:04.79    \nframe=   56 fps=0.9 q=47.4 size=       0KiB time=00:00:01.80 bitrate=   0.2kbits/s speed=0.0276x elapsed=0:01:05.30    \nframe=   57 fps=0.9 q=42.6 size=       0KiB time=00:00:01.83 bitrate=   0.2kbits/s speed=0.0278x elapsed=0:01:05.83    \nframe=   58 fps=0.9 q=45.9 size=       0KiB time=00:00:01.86 bitrate=   0.2kbits/s speed=0.0281x elapsed=0:01:06.33    \nframe=   58 fps=0.9 q=45.9 size=       0KiB time=00:00:01.86 bitrate=   0.2kbits/s speed=0.0279x elapsed=0:01:06.86    \nframe=   59 fps=0.9 q=47.4 size=       0KiB time=00:00:01.90 bitrate=   0.2kbits/s speed=0.0282x elapsed=0:01:07.37    \nframe=   60 fps=0.9 q=47.8 size=       0KiB time=00:00:01.93 bitrate=   0.2kbits/s speed=0.0285x elapsed=0:01:07.88    \nframe=   62 fps=0.9 q=45.7 size=       0KiB time=00:00:02.00 bitrate=   0.2kbits/s speed=0.0292x elapsed=0:01:08.41    \nframe=   63 fps=0.9 q=47.9 size=       0KiB time=00:00:02.03 bitrate=   0.2kbits/s speed=0.0295x elapsed=0:01:08.92    \nframe=   64 fps=0.9 q=48.7 size=       0KiB time=00:00:02.06 bitrate=   0.2kbits/s speed=0.0298x elapsed=0:01:09.44    \nframe=   64 fps=0.9 q=48.7 size=       0KiB time=00:00:02.06 bitrate=   0.2kbits/s speed=0.0295x elapsed=0:01:09.96    \nframe=   65 fps=0.9 q=48.6 size=       0KiB time=00:00:02.10 bitrate=   0.2kbits/s speed=0.0298x elapsed=0:01:10.47    \nframe=   66 fps=0.9 q=42.9 size=       0KiB time=00:00:02.13 bitrate=   0.2kbits/s speed=0.0301x elapsed=0:01:10.98    \nframe=   67 fps=0.9 q=43.3 size=       0KiB time=00:00:02.16 bitrate=   0.2kbits/s speed=0.0303x elapsed=0:01:11.50    \nframe=   69 fps=1.0 q=47.9 size=     256KiB time=00:00:02.23 bitrate= 939.2kbits/s speed=0.031x elapsed=0:01:12.02    \nframe=   69 fps=1.0 q=47.9 size=     256KiB time=00:00:02.23 bitrate= 939.2kbits/s speed=0.0308x elapsed=0:01:12.54    \nframe=   70 fps=1.0 q=48.3 size=     256KiB time=00:00:02.26 bitrate= 925.4kbits/s speed=0.031x elapsed=0:01:13.05    \nframe=   71 fps=1.0 q=48.0 size=     256KiB time=00:00:02.30 bitrate= 912.0kbits/s speed=0.0313x elapsed=0:01:13.57    \nframe=   72 fps=1.0 q=42.8 size=     256KiB time=00:00:02.33 bitrate= 898.9kbits/s speed=0.0315x elapsed=0:01:14.09    \nframe=   73 fps=1.0 q=45.7 size=     256KiB time=00:00:02.36 bitrate= 886.3kbits/s speed=0.0317x elapsed=0:01:14.60    \nframe=   74 fps=1.0 q=48.0 size=     256KiB time=00:00:02.40 bitrate= 874.0kbits/s speed=0.0319x elapsed=0:01:15.11    \nframe=   75 fps=1.0 q=47.9 size=     256KiB time=00:00:02.43 bitrate= 862.0kbits/s speed=0.0322x elapsed=0:01:15.64    \nframe=   76 fps=1.0 q=42.8 size=     256KiB time=00:00:02.46 bitrate= 850.3kbits/s speed=0.0324x elapsed=0:01:16.15    \nframe=   77 fps=1.0 q=45.6 size=     256KiB time=00:00:02.50 bitrate= 839.0kbits/s speed=0.0326x elapsed=0:01:16.66    \nframe=   78 fps=1.0 q=48.0 size=     256KiB time=00:00:02.53 bitrate= 828.0kbits/s speed=0.0328x elapsed=0:01:17.19    \nframe=   79 fps=1.0 q=48.4 size=     256KiB time=00:00:02.56 bitrate= 817.2kbits/s speed=0.033x elapsed=0:01:17.71    \nframe=   80 fps=1.0 q=48.8 size=     256KiB time=00:00:02.60 bitrate= 806.7kbits/s speed=0.0332x elapsed=0:01:18.23    \nframe=   81 fps=1.0 q=42.8 size=     256KiB time=00:00:02.63 bitrate= 796.5kbits/s speed=0.0334x elapsed=0:01:18.75    \nframe=   81 fps=1.0 q=42.8 size=     256KiB time=00:00:02.63 bitrate= 796.5kbits/s speed=0.0332x elapsed=0:01:19.30    \nframe=   81 fps=1.0 q=42.8 size=     256KiB time=00:00:02.63 bitrate= 796.5kbits/s speed=0.033x elapsed=0:01:19.88    \nframe=   81 fps=1.0 q=42.8 size=     256KiB time=00:00:02.63 bitrate= 796.5kbits/s speed=0.0327x elapsed=0:01:20.41    \nframe=   82 fps=1.0 q=46.4 size=     256KiB time=00:00:02.66 bitrate= 786.6kbits/s speed=0.0329x elapsed=0:01:20.95    \nframe=   82 fps=1.0 q=46.4 size=     256KiB time=00:00:02.66 bitrate= 786.6kbits/s speed=0.0327x elapsed=0:01:21.49    \nframe=   82 fps=1.0 q=46.4 size=     256KiB time=00:00:02.66 bitrate= 786.6kbits/s speed=0.0325x elapsed=0:01:22.01    \nframe=   82 fps=1.0 q=46.4 size=     256KiB time=00:00:02.66 bitrate= 786.6kbits/s speed=0.0323x elapsed=0:01:22.56    \nframe=   82 fps=1.0 q=46.4 size=     256KiB time=00:00:02.66 bitrate= 786.6kbits/s speed=0.0321x elapsed=0:01:23.08    \nframe=   82 fps=1.0 q=46.4 size=     256KiB time=00:00:02.66 bitrate= 786.6kbits/s speed=0.0319x elapsed=0:01:23.61    \nframe=   82 fps=1.0 q=46.4 size=     256KiB time=00:00:02.66 bitrate= 786.6kbits/s speed=0.0317x elapsed=0:01:24.17    \nframe=   82 fps=1.0 q=46.4 size=     256KiB time=00:00:02.66 bitrate= 786.6kbits/s speed=0.0315x elapsed=0:01:24.69    \nframe=   83 fps=1.0 q=48.6 size=     256KiB time=00:00:02.70 bitrate= 776.9kbits/s speed=0.0317x elapsed=0:01:25.25    \nframe=   83 fps=1.0 q=48.6 size=     256KiB time=00:00:02.70 bitrate= 776.9kbits/s speed=0.0315x elapsed=0:01:25.79    \nframe=   83 fps=1.0 q=48.6 size=     256KiB time=00:00:02.70 bitrate= 776.9kbits/s speed=0.0313x elapsed=0:01:26.34    \nframe=   83 fps=1.0 q=48.6 size=     256KiB time=00:00:02.70 bitrate= 776.9kbits/s speed=0.0311x elapsed=0:01:26.86    \nframe=   83 fps=0.9 q=48.6 size=     256KiB time=00:00:02.70 bitrate= 776.9kbits/s speed=0.0309x elapsed=0:01:27.37    \nframe=   84 fps=1.0 q=48.9 size=     256KiB time=00:00:02.73 bitrate= 767.4kbits/s speed=0.0311x elapsed=0:01:27.88    \nframe=   84 fps=0.9 q=48.9 size=     256KiB time=00:00:02.73 bitrate= 767.4kbits/s speed=0.0309x elapsed=0:01:28.42    \nframe=   85 fps=1.0 q=43.2 size=     256KiB time=00:00:02.76 bitrate= 758.1kbits/s speed=0.0311x elapsed=0:01:28.94    \nframe=   85 fps=0.9 q=43.2 size=     256KiB time=00:00:02.76 bitrate= 758.1kbits/s speed=0.0309x elapsed=0:01:29.50    \nframe=   86 fps=1.0 q=44.2 size=     256KiB time=00:00:02.80 bitrate= 749.1kbits/s speed=0.0311x elapsed=0:01:30.01    \nframe=   87 fps=1.0 q=48.4 size=     256KiB time=00:00:02.83 bitrate= 740.3kbits/s speed=0.0313x elapsed=0:01:30.55    \nframe=   87 fps=1.0 q=48.4 size=     256KiB time=00:00:02.83 bitrate= 740.3kbits/s speed=0.0311x elapsed=0:01:31.08    \nframe=   88 fps=1.0 q=48.6 size=     256KiB time=00:00:02.86 bitrate= 731.7kbits/s speed=0.0313x elapsed=0:01:31.63    \nframe=   89 fps=1.0 q=49.0 size=     256KiB time=00:00:02.90 bitrate= 723.3kbits/s speed=0.0315x elapsed=0:01:32.17    \nframe=   89 fps=1.0 q=49.0 size=     256KiB time=00:00:02.90 bitrate= 723.3kbits/s speed=0.0313x elapsed=0:01:32.69    \nframe=   89 fps=1.0 q=49.0 size=     256KiB time=00:00:02.90 bitrate= 723.3kbits/s speed=0.0311x elapsed=0:01:33.23    \nframe=   89 fps=0.9 q=49.0 size=     256KiB time=00:00:02.90 bitrate= 723.3kbits/s speed=0.0309x elapsed=0:01:33.76    \nframe=   90 fps=1.0 q=43.0 size=     256KiB time=00:00:02.93 bitrate= 715.1kbits/s speed=0.0311x elapsed=0:01:34.29    \nframe=   90 fps=0.9 q=43.0 size=     256KiB time=00:00:02.93 bitrate= 715.1kbits/s speed=0.0309x elapsed=0:01:34.82    \nframe=   90 fps=0.9 q=43.0 size=     256KiB time=00:00:02.93 bitrate= 715.1kbits/s speed=0.0308x elapsed=0:01:35.36    \nframe=   90 fps=0.9 q=43.0 size=     256KiB time=00:00:02.93 bitrate= 715.1kbits/s speed=0.0306x elapsed=0:01:35.88    \nframe=   90 fps=0.9 q=43.0 size=     256KiB time=00:00:02.93 bitrate= 715.1kbits/s speed=0.0304x elapsed=0:01:36.41    \nframe=   91 fps=0.9 q=46.4 size=     256KiB time=00:00:02.96 bitrate= 707.0kbits/s speed=0.0306x elapsed=0:01:36.94    \nframe=   91 fps=0.9 q=46.4 size=     256KiB time=00:00:02.96 bitrate= 707.0kbits/s speed=0.0304x elapsed=0:01:37.45    \nframe=   91 fps=0.9 q=46.4 size=     256KiB time=00:00:02.96 bitrate= 707.0kbits/s speed=0.0303x elapsed=0:01:37.99    \nframe=   91 fps=0.9 q=46.4 size=     256KiB time=00:00:02.96 bitrate= 707.0kbits/s speed=0.0301x elapsed=0:01:38.52    \nframe=   91 fps=0.9 q=46.4 size=     256KiB time=00:00:02.96 bitrate= 707.0kbits/s speed=0.0299x elapsed=0:01:39.05    \nframe=   92 fps=0.9 q=48.9 size=     256KiB time=00:00:03.00 bitrate= 699.2kbits/s speed=0.0301x elapsed=0:01:39.59    \nframe=   93 fps=0.9 q=48.8 size=     256KiB time=00:00:03.03 bitrate= 691.5kbits/s speed=0.0303x elapsed=0:01:40.12    \nframe=   93 fps=0.9 q=48.8 size=     256KiB time=00:00:03.03 bitrate= 691.5kbits/s speed=0.0301x elapsed=0:01:40.65    \nframe=   93 fps=0.9 q=48.8 size=     256KiB time=00:00:03.03 bitrate= 691.5kbits/s speed=0.03x elapsed=0:01:41.16    \nframe=   94 fps=0.9 q=43.2 size=     256KiB time=00:00:03.06 bitrate= 684.0kbits/s speed=0.0302x elapsed=0:01:41.68    \nframe=   95 fps=0.9 q=46.1 size=     256KiB time=00:00:03.10 bitrate= 676.6kbits/s speed=0.0303x elapsed=0:01:42.20    \nframe=   96 fps=0.9 q=48.7 size=     256KiB time=00:00:03.13 bitrate= 669.4kbits/s speed=0.0305x elapsed=0:01:42.71    \nframe=   97 fps=0.9 q=48.9 size=     256KiB time=00:00:03.16 bitrate= 662.4kbits/s speed=0.0307x elapsed=0:01:43.23    \nframe=   97 fps=0.9 q=48.9 size=     256KiB time=00:00:03.16 bitrate= 662.4kbits/s speed=0.0305x elapsed=0:01:43.83    \nframe=   97 fps=0.9 q=48.9 size=     256KiB time=00:00:03.16 bitrate= 662.4kbits/s speed=0.0303x elapsed=0:01:44.38    \nframe=   97 fps=0.9 q=48.9 size=     256KiB time=00:00:03.16 bitrate= 662.4kbits/s speed=0.0302x elapsed=0:01:44.90    \nframe=   97 fps=0.9 q=48.9 size=     256KiB time=00:00:03.16 bitrate= 662.4kbits/s speed=0.03x elapsed=0:01:45.45    \nframe=   97 fps=0.9 q=48.9 size=     256KiB time=00:00:03.16 bitrate= 662.4kbits/s speed=0.0299x elapsed=0:01:45.98    \nframe=   98 fps=0.9 q=48.9 size=     256KiB time=00:00:03.20 bitrate= 655.5kbits/s speed=0.03x elapsed=0:01:46.50    \nframe=   99 fps=0.9 q=43.1 size=     256KiB time=00:00:03.23 bitrate= 648.7kbits/s speed=0.0302x elapsed=0:01:47.03    \nframe=   99 fps=0.9 q=43.1 size=     256KiB time=00:00:03.23 bitrate= 648.7kbits/s speed=0.0301x elapsed=0:01:47.54    \nframe=   99 fps=0.9 q=43.1 size=     256KiB time=00:00:03.23 bitrate= 648.7kbits/s speed=0.0299x elapsed=0:01:48.06    \nframe=  100 fps=0.9 q=46.5 size=     256KiB time=00:00:03.26 bitrate= 642.1kbits/s speed=0.0301x elapsed=0:01:48.59    \nframe=  100 fps=0.9 q=46.5 size=     256KiB time=00:00:03.26 bitrate= 642.1kbits/s speed=0.0299x elapsed=0:01:49.11    \nframe=  101 fps=0.9 q=49.0 size=     256KiB time=00:00:03.30 bitrate= 635.6kbits/s speed=0.0301x elapsed=0:01:49.65    \nframe=  101 fps=0.9 q=49.0 size=     256KiB time=00:00:03.30 bitrate= 635.6kbits/s speed=0.03x elapsed=0:01:50.17    \nframe=  102 fps=0.9 q=48.9 size=     256KiB time=00:00:03.33 bitrate= 629.3kbits/s speed=0.0301x elapsed=0:01:50.70    \nframe=  102 fps=0.9 q=48.9 size=     256KiB time=00:00:03.33 bitrate= 629.3kbits/s speed=0.03x elapsed=0:01:51.23    \nframe=  102 fps=0.9 q=48.9 size=     256KiB time=00:00:03.33 bitrate= 629.3kbits/s speed=0.0298x elapsed=0:01:51.78    \nframe=  102 fps=0.9 q=48.9 size=     256KiB time=00:00:03.33 bitrate= 629.3kbits/s speed=0.0297x elapsed=0:01:52.30    \nframe=  102 fps=0.9 q=48.9 size=     256KiB time=00:00:03.33 bitrate= 629.3kbits/s speed=0.0295x elapsed=0:01:52.86    \nframe=  103 fps=0.9 q=43.2 size=     256KiB time=00:00:03.36 bitrate= 623.0kbits/s speed=0.0297x elapsed=0:01:53.39    \nframe=  103 fps=0.9 q=43.2 size=     256KiB time=00:00:03.36 bitrate= 623.0kbits/s speed=0.0295x elapsed=0:01:53.93    \nframe=  104 fps=0.9 q=46.5 size=     256KiB time=00:00:03.40 bitrate= 616.9kbits/s speed=0.0297x elapsed=0:01:54.45    \nframe=  105 fps=0.9 q=48.8 size=     256KiB time=00:00:03.43 bitrate= 610.9kbits/s speed=0.0299x elapsed=0:01:55.00    \nframe=  105 fps=0.9 q=48.8 size=     256KiB time=00:00:03.43 bitrate= 610.9kbits/s speed=0.0297x elapsed=0:01:55.52    \nframe=  106 fps=0.9 q=49.0 size=     256KiB time=00:00:03.46 bitrate= 605.0kbits/s speed=0.0299x elapsed=0:01:56.08    \nframe=  106 fps=0.9 q=49.0 size=     256KiB time=00:00:03.46 bitrate= 605.0kbits/s speed=0.0297x elapsed=0:01:56.64    \nframe=  106 fps=0.9 q=49.0 size=     256KiB time=00:00:03.46 bitrate= 605.0kbits/s speed=0.0296x elapsed=0:01:57.18    \nframe=  107 fps=0.9 q=49.0 size=     256KiB time=00:00:03.50 bitrate= 599.3kbits/s speed=0.0297x elapsed=0:01:57.71    \nframe=  107 fps=0.9 q=49.0 size=     256KiB time=00:00:03.50 bitrate= 599.3kbits/s speed=0.0296x elapsed=0:01:58.23    \nframe=  107 fps=0.9 q=49.0 size=     256KiB time=00:00:03.50 bitrate= 599.3kbits/s speed=0.0295x elapsed=0:01:58.78    \nframe=  108 fps=0.9 q=43.3 size=     256KiB time=00:00:03.53 bitrate= 593.6kbits/s speed=0.0296x elapsed=0:01:59.32    \nframe=  108 fps=0.9 q=43.3 size=     256KiB time=00:00:03.53 bitrate= 593.6kbits/s speed=0.0295x elapsed=0:01:59.82    \nframe=  108 fps=0.9 q=43.3 size=     256KiB time=00:00:03.53 bitrate= 593.6kbits/s speed=0.0294x elapsed=0:02:00.35    \nframe=  109 fps=0.9 q=47.3 size=     256KiB time=00:00:03.56 bitrate= 588.1kbits/s speed=0.0295x elapsed=0:02:00.86    \nframe=  109 fps=0.9 q=47.3 size=     256KiB time=00:00:03.56 bitrate= 588.1kbits/s speed=0.0294x elapsed=0:02:01.39    \nframe=  110 fps=0.9 q=48.9 size=     256KiB time=00:00:03.60 bitrate= 582.6kbits/s speed=0.0295x elapsed=0:02:01.91    \nframe=  110 fps=0.9 q=48.9 size=     256KiB time=00:00:03.60 bitrate= 582.6kbits/s speed=0.0294x elapsed=0:02:02.41    \nframe=  111 fps=0.9 q=43.4 size=     256KiB time=00:00:03.63 bitrate= 577.3kbits/s speed=0.0296x elapsed=0:02:02.94    \nframe=  111 fps=0.9 q=43.4 size=     256KiB time=00:00:03.63 bitrate= 577.3kbits/s speed=0.0294x elapsed=0:02:03.47    \nframe=  111 fps=0.9 q=43.4 size=     256KiB time=00:00:03.63 bitrate= 577.3kbits/s speed=0.0293x elapsed=0:02:04.06    \nframe=  111 fps=0.9 q=43.4 size=     256KiB time=00:00:03.63 bitrate= 577.3kbits/s speed=0.0292x elapsed=0:02:04.63    \nframe=  111 fps=0.9 q=43.4 size=     256KiB time=00:00:03.63 bitrate= 577.3kbits/s speed=0.029x elapsed=0:02:05.19    \nframe=  111 fps=0.9 q=43.4 size=     256KiB time=00:00:03.63 bitrate= 577.3kbits/s speed=0.0289x elapsed=0:02:05.71    \nframe=  112 fps=0.9 q=46.9 size=     256KiB time=00:00:03.66 bitrate= 572.0kbits/s speed=0.029x elapsed=0:02:06.23    \nframe=  113 fps=0.9 q=49.0 size=     256KiB time=00:00:03.70 bitrate= 566.9kbits/s speed=0.0292x elapsed=0:02:06.76    \nframe=  113 fps=0.9 q=49.0 size=     256KiB time=00:00:03.70 bitrate= 566.9kbits/s speed=0.0291x elapsed=0:02:07.29    \nframe=  114 fps=0.9 q=43.4 size=     256KiB time=00:00:03.73 bitrate= 561.8kbits/s speed=0.0292x elapsed=0:02:07.81    \nframe=  114 fps=0.9 q=43.4 size=     256KiB time=00:00:03.73 bitrate= 561.8kbits/s speed=0.0291x elapsed=0:02:08.32    \nframe=  114 fps=0.9 q=43.4 size=     256KiB time=00:00:03.73 bitrate= 561.8kbits/s speed=0.029x elapsed=0:02:08.84    \nframe=  115 fps=0.9 q=47.9 size=     256KiB time=00:00:03.76 bitrate= 556.9kbits/s speed=0.0291x elapsed=0:02:09.35    \nframe=  117 fps=0.9 q=43.4 size=     256KiB time=00:00:03.83 bitrate= 547.2kbits/s speed=0.0295x elapsed=0:02:09.87    \nframe=  117 fps=0.9 q=43.4 size=     256KiB time=00:00:03.83 bitrate= 547.2kbits/s speed=0.0294x elapsed=0:02:10.38    \nframe=  118 fps=0.9 q=46.8 size=     256KiB time=00:00:03.86 bitrate= 542.5kbits/s speed=0.0295x elapsed=0:02:10.90    \nframe=  119 fps=0.9 q=49.0 size=     256KiB time=00:00:03.90 bitrate= 537.8kbits/s speed=0.0297x elapsed=0:02:11.42    \nframe=  120 fps=0.9 q=48.7 size=     256KiB time=00:00:03.93 bitrate= 533.3kbits/s speed=0.0298x elapsed=0:02:11.93    \nframe=  121 fps=0.9 q=43.1 size=     256KiB time=00:00:03.96 bitrate= 528.8kbits/s speed=0.0299x elapsed=0:02:12.46    \nframe=  121 fps=0.9 q=43.1 size=     256KiB time=00:00:03.96 bitrate= 528.8kbits/s speed=0.0298x elapsed=0:02:12.98    \nframe=  122 fps=0.9 q=46.2 size=     256KiB time=00:00:04.00 bitrate= 524.4kbits/s speed=0.03x elapsed=0:02:13.49    \nframe=  123 fps=0.9 q=48.5 size=     256KiB time=00:00:04.03 bitrate= 520.0kbits/s speed=0.0301x elapsed=0:02:14.01    \nframe=  123 fps=0.9 q=48.5 size=     256KiB time=00:00:04.03 bitrate= 520.0kbits/s speed=0.03x elapsed=0:02:14.53    \nframe=  124 fps=0.9 q=48.5 size=     256KiB time=00:00:04.06 bitrate= 515.8kbits/s speed=0.0301x elapsed=0:02:15.04    \nframe=  125 fps=0.9 q=48.7 size=     256KiB time=00:00:04.10 bitrate= 511.6kbits/s speed=0.0302x elapsed=0:02:15.55    \nframe=  126 fps=0.9 q=42.9 size=     256KiB time=00:00:04.13 bitrate= 507.5kbits/s speed=0.0304x elapsed=0:02:16.08    \nframe=  127 fps=0.9 q=46.9 size=     256KiB time=00:00:04.16 bitrate= 503.4kbits/s speed=0.0305x elapsed=0:02:16.59    \nframe=  127 fps=0.9 q=46.9 size=     256KiB time=00:00:04.16 bitrate= 503.4kbits/s speed=0.0304x elapsed=0:02:17.11    \nframe=  129 fps=0.9 q=42.8 size=     256KiB time=00:00:04.23 bitrate= 495.5kbits/s speed=0.0308x elapsed=0:02:17.63    \nframe=  130 fps=0.9 q=46.2 size=     512KiB time=00:00:04.26 bitrate= 983.1kbits/s speed=0.0309x elapsed=0:02:18.13    \nframe=  130 fps=0.9 q=46.2 size=     512KiB time=00:00:04.26 bitrate= 983.1kbits/s speed=0.0308x elapsed=0:02:18.64    \nframe=  131 fps=0.9 q=47.9 size=     512KiB time=00:00:04.30 bitrate= 975.5kbits/s speed=0.0309x elapsed=0:02:19.17    \nframe=  131 fps=0.9 q=47.9 size=     512KiB time=00:00:04.30 bitrate= 975.5kbits/s speed=0.0308x elapsed=0:02:19.68    \nframe=  133 fps=0.9 q=43.0 size=     512KiB time=00:00:04.36 bitrate= 960.6kbits/s speed=0.0311x elapsed=0:02:20.20    \nframe=  134 fps=1.0 q=43.8 size=     512KiB time=00:00:04.40 bitrate= 953.3kbits/s speed=0.0313x elapsed=0:02:20.71    \nframe=  135 fps=1.0 q=48.7 size=     512KiB time=00:00:04.43 bitrate= 946.2kbits/s speed=0.0314x elapsed=0:02:21.23    \nframe=  135 fps=1.0 q=48.7 size=     512KiB time=00:00:04.43 bitrate= 946.2kbits/s speed=0.0313x elapsed=0:02:21.74    \nframe=  136 fps=1.0 q=48.7 size=     512KiB time=00:00:04.46 bitrate= 939.1kbits/s speed=0.0314x elapsed=0:02:22.26    \nframe=  137 fps=1.0 q=48.9 size=     512KiB time=00:00:04.50 bitrate= 932.1kbits/s speed=0.0315x elapsed=0:02:22.78    \nframe=  138 fps=1.0 q=43.2 size=     512KiB time=00:00:04.53 bitrate= 925.3kbits/s speed=0.0316x elapsed=0:02:23.29    \nframe=  138 fps=1.0 q=43.2 size=     512KiB time=00:00:04.53 bitrate= 925.3kbits/s speed=0.0315x elapsed=0:02:23.82    \nframe=  139 fps=1.0 q=46.4 size=     512KiB time=00:00:04.56 bitrate= 918.5kbits/s speed=0.0316x elapsed=0:02:24.32    \nframe=  140 fps=1.0 q=48.9 size=     512KiB time=00:00:04.60 bitrate= 911.9kbits/s speed=0.0318x elapsed=0:02:24.84    \nframe=  140 fps=1.0 q=48.9 size=     512KiB time=00:00:04.60 bitrate= 911.9kbits/s speed=0.0316x elapsed=0:02:25.36    \nframe=  141 fps=1.0 q=48.9 size=     512KiB time=00:00:04.63 bitrate= 905.3kbits/s speed=0.0318x elapsed=0:02:25.87    \nframe=  142 fps=1.0 q=43.9 size=     512KiB time=00:00:04.66 bitrate= 898.9kbits/s speed=0.0319x elapsed=0:02:26.38    \nframe=  142 fps=1.0 q=43.9 size=     512KiB time=00:00:04.66 bitrate= 898.9kbits/s speed=0.0318x elapsed=0:02:26.91    \nframe=  144 fps=1.0 q=47.7 size=     512KiB time=00:00:04.73 bitrate= 886.2kbits/s speed=0.0321x elapsed=0:02:27.41    \nframe=  144 fps=1.0 q=47.7 size=     512KiB time=00:00:04.73 bitrate= 886.2kbits/s speed=0.032x elapsed=0:02:27.93    \nframe=  144 fps=1.0 q=47.7 size=     512KiB time=00:00:04.73 bitrate= 886.2kbits/s speed=0.0319x elapsed=0:02:28.45    \nframe=  144 fps=1.0 q=47.7 size=     512KiB time=00:00:04.73 bitrate= 886.2kbits/s speed=0.0318x elapsed=0:02:29.01    \nframe=  144 fps=1.0 q=47.7 size=     512KiB time=00:00:04.73 bitrate= 886.2kbits/s speed=0.0317x elapsed=0:02:29.53    \nframe=  144 fps=1.0 q=47.7 size=     512KiB time=00:00:04.73 bitrate= 886.2kbits/s speed=0.0315x elapsed=0:02:30.07    \nframe=  145 fps=1.0 q=47.4 size=     512KiB time=00:00:04.76 bitrate= 880.0kbits/s speed=0.0316x elapsed=0:02:30.61    \nframe=  145 fps=1.0 q=47.4 size=     512KiB time=00:00:04.76 bitrate= 880.0kbits/s speed=0.0315x elapsed=0:02:31.12    \nframe=  145 fps=1.0 q=47.4 size=     512KiB time=00:00:04.76 bitrate= 880.0kbits/s speed=0.0314x elapsed=0:02:31.67    \nframe=  145 fps=1.0 q=47.4 size=     512KiB time=00:00:04.76 bitrate= 880.0kbits/s speed=0.0313x elapsed=0:02:32.18    \nframe=  146 fps=1.0 q=47.0 size=     512KiB time=00:00:04.80 bitrate= 873.9kbits/s speed=0.0314x elapsed=0:02:32.71    \nframe=  146 fps=1.0 q=47.0 size=     512KiB time=00:00:04.80 bitrate= 873.9kbits/s speed=0.0313x elapsed=0:02:33.24    \nframe=  147 fps=1.0 q=45.7 size=     512KiB time=00:00:04.83 bitrate= 867.9kbits/s speed=0.0314x elapsed=0:02:33.78    \nframe=  147 fps=1.0 q=45.7 size=     512KiB time=00:00:04.83 bitrate= 867.9kbits/s speed=0.0313x elapsed=0:02:34.29    \nframe=  148 fps=1.0 q=45.2 size=     512KiB time=00:00:04.86 bitrate= 861.9kbits/s speed=0.0314x elapsed=0:02:34.81    \nframe=  148 fps=1.0 q=45.2 size=     512KiB time=00:00:04.86 bitrate= 861.9kbits/s speed=0.0313x elapsed=0:02:35.32    \n[mp4 @ 0000014f38fe9740] Starting second pass: moving the moov atom to the beginning of the file\n[out#0/mp4 @ 0000014f38fdab00] video:598KiB audio:0KiB subtitle:0KiB other streams:0KiB global headers:2KiB muxing overhead: 0.849779%\nframe=  150 fps=1.0 q=45.9 Lsize=     603KiB time=00:00:04.93 bitrate=1000.7kbits/s speed=0.0317x elapsed=0:02:35.53    \nx265 [info]: frame I:      1, Avg QP:45.74  kb/s: 5283.84 \nx265 [info]: frame P:     36, Avg QP:43.56  kb/s: 3036.93 \nx265 [info]: frame B:    113, Avg QP:47.88  kb/s: 284.11  \nx265 [info]: Weighted P-Frames: Y:63.9% UV:58.3%\n\nencoded 150 frames in 155.11s (0.97 fps), 978.12 kb/s, Avg QP:46.83\n",
  "seconds": 155.97646737098694,
  "probe_out": {}
}